<svg width="33" height="33" viewBox="0 0 33 33" fill="none" xmlns="http://www.w3.org/2000/svg">
<path d="M14.2373 20.6992L14.2373 16.6992" stroke="#DD2229" stroke-width="2.90358" stroke-linecap="round"/>
<path d="M19.5713 20.6992L19.5713 16.6992" stroke="#DD2229" stroke-width="2.90358" stroke-linecap="round"/>
<path d="M4.9043 10.0327H28.9043V10.0327C27.8842 10.0327 27.3741 10.0327 26.9593 10.1595C26.0359 10.4416 25.3132 11.1644 25.0311 12.0877C24.9043 12.5025 24.9043 13.0126 24.9043 14.0327V21.5589C24.9043 24.2964 24.9043 25.6652 24.0539 26.5156C23.2034 27.366 21.8347 27.366 19.0971 27.366H14.7115C11.9739 27.366 10.6052 27.366 9.75473 26.5156C8.9043 25.6652 8.9043 24.2964 8.9043 21.5589V14.0327C8.9043 13.0126 8.9043 12.5025 8.77754 12.0877C8.49536 11.1644 7.77265 10.4416 6.84928 10.1595C6.43447 10.0327 5.92441 10.0327 4.9043 10.0327V10.0327Z" stroke="#DD2229" stroke-width="2.90358" stroke-linecap="round"/>
<path d="M14.3288 5.1931C14.4808 5.05134 14.8155 4.92608 15.2813 4.83674C15.747 4.7474 16.3176 4.69897 16.9046 4.69897C17.4916 4.69897 18.0623 4.7474 18.528 4.83674C18.9937 4.92608 19.3285 5.05134 19.4804 5.1931" stroke="#DD2229" stroke-width="2.90358" stroke-linecap="round"/>
</svg>
