<svg width="78" height="78" viewBox="0 0 78 78" fill="none" xmlns="http://www.w3.org/2000/svg">
<path fill-rule="evenodd" clip-rule="evenodd" d="M77.25 39C77.25 60.1249 60.1249 77.25 39 77.25C17.8751 77.25 0.75 60.1249 0.75 39C0.75 17.8751 17.8751 0.75 39 0.75C60.1249 0.75 77.25 17.8751 77.25 39ZM43.25 64.5C43.25 66.8472 41.3472 68.75 39 68.75C36.6528 68.75 34.75 66.8472 34.75 64.5C34.75 62.1528 36.6528 60.25 39 60.25C41.3472 60.25 43.25 62.1528 43.25 64.5ZM45.0586 35.9268C40.8434 37.332 38 41.2764 38 45.7197V56H40V45.7197C40 42.1372 42.2927 38.9561 45.6914 37.8232C49.9066 36.418 52.75 32.4736 52.75 28.0303V25.8496C52.75 18.477 46.7729 12.5 39.4004 12.5H39C31.4061 12.5 25.25 18.6561 25.25 26.25H27.25C27.25 19.7607 32.5107 14.5 39 14.5H39.4004C45.6684 14.5 50.75 19.5816 50.75 25.8496V28.0303C50.75 31.6128 48.4573 34.7939 45.0586 35.9268Z" fill="#DD2229"/>
</svg>
