<svg width="30" height="30" viewBox="0 0 30 30" fill="none" xmlns="http://www.w3.org/2000/svg">
<path d="M17.765 13.1398C18.983 12.8312 20.471 12.6638 22.0003 12.6638C25.8663 12.6638 28.9997 13.7098 28.9997 14.9998C28.9997 16.2898 25.8663 17.3358 22.0003 17.3358C20.469 17.3358 18.9803 17.1678 17.761 16.8585M16.525 18.0945C16.8343 19.3132 17.0023 20.8025 17.0023 22.3345C17.0023 26.1992 15.9563 29.3332 14.6663 29.3332C13.3763 29.3332 12.3303 26.1998 12.3303 22.3338C12.3303 20.8025 12.4983 19.3138 12.8077 18.0945M11.5717 16.8585C10.353 17.1678 8.86367 17.3358 7.33167 17.3358C3.46767 17.3358 0.333008 16.2898 0.333008 14.9998C0.333008 13.7098 3.46634 12.6638 7.33234 12.6638C8.86367 12.6638 10.3523 12.8318 11.5717 13.1412M12.8077 11.9052C12.4983 10.6865 12.3303 9.19717 12.3303 7.66517C12.3303 3.80117 13.3763 0.666504 14.6663 0.666504C15.9563 0.666504 17.0023 3.79984 17.0023 7.66584C17.0023 9.19517 16.835 10.6832 16.5263 11.9012" stroke="#1685C6" stroke-width="0.5" stroke-linecap="round" stroke-linejoin="round"/>
<path d="M18.17 15.8744C19.25 16.5171 20.422 17.4511 21.5047 18.5344C24.238 21.2677 25.714 24.2224 24.802 25.1344C23.8893 26.0477 20.934 24.5711 18.2007 21.8377C17.118 20.7551 16.184 19.5837 15.5407 18.5031M13.792 18.5031C13.1493 19.5831 12.2153 20.7551 11.132 21.8377C8.39867 24.5711 5.444 26.0471 4.532 25.1351C3.61867 24.2224 5.09534 21.2671 7.82867 18.5337C8.91134 17.4511 10.0827 16.5171 11.1633 15.8737M11.1627 14.1251C10.0827 13.4817 8.91134 12.5477 7.82934 11.4651C5.096 8.73175 3.61934 5.77708 4.53134 4.86508C5.444 3.95175 8.39934 5.42841 11.1327 8.16175C12.2147 9.24441 13.1487 10.4151 13.792 11.4951M15.5427 11.4937C16.1853 10.4137 17.1193 9.24375 18.2007 8.16175C20.934 5.42841 23.8893 3.95241 24.802 4.86441C25.714 5.77708 24.238 8.73241 21.5047 11.4657C20.4227 12.5471 19.252 13.4811 18.1727 14.1237" stroke="#1685C6" stroke-width="0.5" stroke-linecap="round" stroke-linejoin="round"/>
<path d="M18.1414 14.0053C19.3974 14.0227 20.8774 14.246 22.3547 14.642C26.088 15.642 28.8447 17.4633 28.5107 18.71C28.1774 19.956 24.8794 20.1553 21.1454 19.1547C19.6667 18.758 18.272 18.2107 17.1747 17.5967M15.6607 18.4733C15.644 19.7293 15.4207 21.2107 15.024 22.6887C14.024 26.422 12.2027 29.1787 10.956 28.8447C9.71002 28.5113 9.51069 25.2133 10.5114 21.4793C10.908 20.0007 11.4554 18.606 12.0694 17.5087M11.1927 15.9947C9.93669 15.978 8.45536 15.7547 6.97736 15.358C3.24403 14.358 0.487359 12.5367 0.821359 11.29C1.15469 10.044 4.45269 9.84468 8.18669 10.8453C9.66469 11.2413 11.0587 11.788 12.1554 12.402M13.6714 11.53C13.688 10.2727 13.9114 8.79068 14.308 7.31134C15.308 3.57801 17.1294 0.821344 18.376 1.15534C19.622 1.48868 19.8214 4.78668 18.8207 8.52068C18.4247 9.99668 17.8794 11.3893 17.266 12.4853" stroke="#1685C6" stroke-width="0.5" stroke-linecap="round" stroke-linejoin="round"/>
<path d="M17.8243 16.752C18.7017 17.652 19.591 18.858 20.3563 20.1833C22.2897 23.5313 22.9497 26.768 21.833 27.4133C20.7163 28.0586 18.243 25.8666 16.3103 22.52C15.545 21.1933 14.9457 19.82 14.6037 18.61M12.9143 18.158C12.0143 19.0353 10.8083 19.9246 9.48301 20.69C6.13501 22.6233 2.89834 23.2833 2.25301 22.1666C1.60834 21.0493 3.79968 18.5766 7.14634 16.644C8.47301 15.8786 9.84634 15.2793 11.0563 14.9373M11.5077 13.2473C10.6303 12.3473 9.74101 11.142 8.97634 9.81663C7.04301 6.46863 6.38301 3.23196 7.49968 2.58663C8.61701 1.94196 11.0897 4.1333 13.0223 7.47996C13.7863 8.80396 14.3843 10.1733 14.7263 11.382M16.421 11.84C17.321 10.9633 18.5257 10.0746 19.8497 9.30996C23.1977 7.37663 26.4343 6.71663 27.0797 7.8333C27.7243 8.95063 25.533 11.4233 22.1863 13.356C20.8597 14.1213 19.4863 14.7206 18.2763 15.0626" stroke="#1685C6" stroke-width="0.5" stroke-linecap="round" stroke-linejoin="round"/>
<path d="M17.1794 12.4C18.276 11.7874 19.6687 11.2413 21.146 10.8453C24.8794 9.84535 28.1774 10.044 28.5107 11.29C28.8447 12.5367 26.0887 14.3574 22.3547 15.358C20.8754 15.7547 19.3934 15.978 18.136 15.9947M17.2627 17.5087C17.8767 18.606 18.424 20.0007 18.8207 21.4794C19.8207 25.2134 19.622 28.5113 18.376 28.8447C17.1294 29.1787 15.3087 26.4227 14.308 22.6887C13.9114 21.2093 13.688 19.7274 13.6714 18.47M12.1574 17.5967C11.06 18.2107 9.66537 18.758 8.1867 19.1547C4.4527 20.1547 1.1547 19.956 0.821365 18.71C0.487365 17.4634 3.24337 15.6427 6.97737 14.642C8.4567 14.2453 9.9387 14.022 11.196 14.0053M12.0694 12.4913C11.4554 11.394 10.908 9.99935 10.5114 8.52068C9.51136 4.78668 9.71003 1.48868 10.956 1.15535C12.2027 0.821349 14.0234 3.57735 15.024 7.31135C15.42 8.78735 15.6434 10.2667 15.66 11.522" stroke="#1685C6" stroke-width="0.5" stroke-linecap="round" stroke-linejoin="round"/>
<path d="M18.2817 14.9394C19.4903 15.2807 20.8617 15.8794 22.1857 16.644C25.5337 18.5774 27.7243 21.0494 27.079 22.1667C26.4343 23.284 23.1977 22.6227 19.8497 20.69C18.5243 19.9247 17.3183 19.0354 16.4183 18.158M14.7283 18.61C14.387 19.82 13.7883 21.1933 13.0217 22.5194C11.0897 25.8674 8.61701 28.058 7.49968 27.4127C6.38234 26.768 7.04368 23.5314 8.97634 20.1834C9.74168 18.858 10.631 17.652 11.5083 16.752M11.053 15.0613C9.84434 14.72 8.47168 14.1214 7.14634 13.356C3.79968 11.4227 1.60834 8.95068 2.25301 7.83335C2.89834 6.71602 6.13501 7.37735 9.48301 9.31002C10.8083 10.0754 12.0143 10.9647 12.9143 11.842M14.6043 11.39C14.9457 10.18 15.5443 8.80668 16.311 7.48068C18.243 4.13268 20.7157 1.94202 21.833 2.58735C22.9503 3.23202 22.289 6.46868 20.3563 9.81668C19.5917 11.1407 18.703 12.3454 17.827 13.2454" stroke="#1685C6" stroke-width="0.5" stroke-linecap="round" stroke-linejoin="round"/>
</svg>
