<svg width="102" height="102" viewBox="0 0 102 102" fill="none" xmlns="http://www.w3.org/2000/svg">
<path fill-rule="evenodd" clip-rule="evenodd" d="M51 93.5C74.4727 93.5 93.5 74.4727 93.5 51C93.5 27.5273 74.4727 8.5 51 8.5C27.5273 8.5 8.5 27.5273 8.5 51C8.5 74.4727 27.5273 93.5 51 93.5ZM73.8268 37.5487C74.0256 37.3439 74.1811 37.1011 74.284 36.8349C74.387 36.5686 74.4352 36.2844 74.4258 35.9991C74.4165 35.7138 74.3498 35.4333 74.2296 35.1744C74.1095 34.9154 73.9384 34.6833 73.7266 34.4919C73.5148 34.3006 73.2667 34.1538 72.9969 34.0605C72.7271 33.9671 72.4413 33.9291 72.1566 33.9486C71.8718 33.9682 71.5938 34.0449 71.3394 34.1742C71.0849 34.3035 70.8591 34.4827 70.6754 34.7013L45.22 62.8299L31.2162 49.4615C30.8088 49.0721 30.2633 48.8604 29.6998 48.8732C29.1363 48.8859 28.6009 49.122 28.2115 49.5295C27.8221 49.937 27.6104 50.4825 27.6232 51.046C27.6359 51.6095 27.872 52.1448 28.2795 52.5342L43.8643 67.4092L45.4431 68.918L46.9072 67.2988L73.8268 37.5487Z" fill="#0AA94D"/>
</svg>
