<svg width="32" height="32" viewBox="0 0 21 24" fill="none" xmlns="http://www.w3.org/2000/svg">
<path d="M10.333 1.33301V0.333008V1.33301ZM19.666 10.667L20.666 10.667V10.667H19.666ZM10.7354 22.4707L11.1881 23.3624H11.1881L10.7354 22.4707ZM9.93066 22.4707L9.47796 23.3624H9.47796L9.93066 22.4707ZM1 10.667H0V10.667L1 10.667ZM6.33301 10.667H5.33301V10.6671L6.33301 10.667ZM14.333 10.667L15.333 10.6671V10.667H14.333ZM10.333 1.33301V2.33301C14.9352 2.33301 18.666 6.06448 18.666 10.667H19.666H20.666C20.666 4.96019 16.0401 0.333008 10.333 0.333008V1.33301ZM19.666 10.667L18.666 10.667C18.6659 13.717 17.0764 16.2001 15.1691 18.082C13.2639 19.9617 11.1331 21.1473 10.2826 21.579L10.7354 22.4707L11.1881 23.3624C12.1265 22.8859 14.4609 21.5903 16.5738 19.5057C18.6845 17.4231 20.6659 14.4585 20.666 10.667L19.666 10.667ZM10.7354 22.4707L10.2827 21.579C10.3132 21.5635 10.3528 21.5635 10.3834 21.579L9.93066 22.4707L9.47796 23.3624C10.0165 23.6358 10.6495 23.6358 11.1881 23.3624L10.7354 22.4707ZM9.93066 22.4707L10.3834 21.579C9.53293 21.1473 7.40209 19.9617 5.49691 18.082C3.58958 16.2001 2.0001 13.717 2 10.667L1 10.667L0 10.667C0.000125408 14.4585 1.98152 17.4231 4.09223 19.5057C6.2051 21.5903 8.53949 22.8859 9.47796 23.3624L9.93066 22.4707ZM1 10.667H2C2 6.06448 5.73077 2.33301 10.333 2.33301V1.33301V0.333008C4.62593 0.333008 0 4.96019 0 10.667H1ZM10.333 6.66699V5.66699C7.57158 5.66699 5.33301 7.90557 5.33301 10.667H6.33301H7.33301C7.33301 9.01014 8.67615 7.66699 10.333 7.66699V6.66699ZM6.33301 10.667L5.33301 10.6671C5.33323 13.4282 7.57161 15.667 10.333 15.667V14.667V13.667C8.67634 13.667 7.33314 12.3238 7.33301 10.6669L6.33301 10.667ZM10.333 14.667V15.667C13.0944 15.667 15.3328 13.4282 15.333 10.6671L14.333 10.667L13.333 10.6669C13.3329 12.3238 11.9897 13.667 10.333 13.667V14.667ZM14.333 10.667H15.333C15.333 7.90557 13.0944 5.66699 10.333 5.66699V6.66699V7.66699C11.9899 7.66699 13.333 9.01014 13.333 10.667H14.333Z" fill="#1685C6"/>
</svg>
