<svg width="32" height="32" viewBox="0 0 32 32" fill="none" xmlns="http://www.w3.org/2000/svg">
<path d="M16.0002 6.6665L15.2931 5.9594L16.0002 5.25229L16.7073 5.9594L16.0002 6.6665ZM17.0002 18.6665C17.0002 19.2188 16.5524 19.6665 16.0002 19.6665C15.4479 19.6665 15.0002 19.2188 15.0002 18.6665L16.0002 18.6665L17.0002 18.6665ZM9.3335 13.3332L8.62639 12.6261L15.2931 5.9594L16.0002 6.6665L16.7073 7.37361L10.0406 14.0403L9.3335 13.3332ZM16.0002 6.6665L16.7073 5.9594L23.3739 12.6261L22.6668 13.3332L21.9597 14.0403L15.2931 7.37361L16.0002 6.6665ZM16.0002 6.6665L17.0002 6.6665L17.0002 18.6665L16.0002 18.6665L15.0002 18.6665L15.0002 6.6665L16.0002 6.6665Z" fill="#0F2837"/>
<path d="M6.6665 21.3335L6.6665 22.6668C6.6665 24.1396 7.86041 25.3335 9.33317 25.3335L22.6665 25.3335C24.1393 25.3335 25.3332 24.1396 25.3332 22.6668V21.3335" stroke="#0F2837" stroke-width="2"/>
</svg>
