<svg width="34" height="35" viewBox="0 0 34 35" fill="none" xmlns="http://www.w3.org/2000/svg">
<g clip-path="url(#clip0_442_20380)">
<path d="M4.59095 9.13865C5.47873 8.51815 6.817 8.63715 7.61411 9.29543L6.69989 7.96659C5.96417 6.91732 6.22767 5.78209 7.27789 5.04543C8.32811 4.31159 11.3041 6.28454 11.3041 6.28454C10.5617 5.22487 10.7006 3.88187 11.7602 3.13859C12.2697 2.78262 12.8996 2.64344 13.5116 2.75164C14.1237 2.85984 14.6677 3.20657 15.0242 3.71565L24.8653 17.6179L23.6111 29.7776L13.1438 25.9601L4.01389 12.4234C3.83586 12.1699 3.70955 11.8838 3.6422 11.5815C3.57484 11.2791 3.56776 10.9665 3.62136 10.6614C3.67495 10.3563 3.78818 10.0648 3.95455 9.80349C4.12092 9.5422 4.33718 9.31628 4.59095 9.13865Z" fill="#EF9645"/>
<path d="M2.54503 16.8733C2.54503 16.8733 1.47592 15.315 3.0352 14.2468C4.59259 13.1786 5.66075 14.736 5.66075 14.736L10.62 21.9686C10.79 21.6833 10.9789 21.4019 11.1867 21.1242L4.30359 11.0876C4.30359 11.0876 3.23542 9.53024 4.79375 8.46207C6.35209 7.3939 7.41931 8.95129 7.41931 8.95129L13.8935 18.3929C14.134 18.1958 14.3811 18 14.6349 17.8055L7.12936 6.8584C7.12936 6.8584 6.0612 5.30101 7.61953 4.23285C9.17786 3.16468 10.2451 4.72207 10.2451 4.72207L17.7506 15.6672C18.0264 15.4982 18.2993 15.3518 18.5732 15.1969L11.5579 4.96668C11.5579 4.96668 10.4897 3.40929 12.0471 2.34112C13.6045 1.27296 14.6726 2.83035 14.6726 2.83035L22.0903 13.648L23.218 15.2932C18.5449 18.4987 18.1 24.529 20.77 28.4229C21.3036 29.2021 22.0828 28.6685 22.0828 28.6685C18.8783 23.9944 19.8567 18.7423 24.5308 15.5378L23.1528 8.64151C23.1528 8.64151 22.6381 6.8244 24.4543 6.30874C26.2714 5.79401 26.787 7.61112 26.787 7.61112L28.3784 12.3371C29.0093 14.2109 29.6808 16.0781 30.5695 17.8442C33.0789 22.8308 31.5801 29.0283 26.8484 32.2743C21.687 35.8132 14.6311 34.4976 11.0913 29.3371L2.54503 16.8733Z" fill="#FFDC5D"/>
<path d="M11.3337 30.7623C7.55594 30.7623 3.7385 26.9449 3.7385 23.1671C3.7385 22.6448 3.356 22.2227 2.83372 22.2227C2.31144 22.2227 1.84961 22.6448 1.84961 23.1671C1.84961 28.8338 5.66705 32.6512 11.3337 32.6512C11.856 32.6512 12.2782 32.1894 12.2782 31.6671C12.2782 31.1448 11.856 30.7623 11.3337 30.7623Z" fill="#5DADEC"/>
<path d="M6.61111 32.6119C3.77778 32.6119 1.88889 30.723 1.88889 27.8896C1.88889 27.6392 1.78939 27.3989 1.61227 27.2218C1.43515 27.0447 1.19493 26.9452 0.944444 26.9452C0.693962 26.9452 0.453739 27.0447 0.276621 27.2218C0.0995037 27.3989 0 27.6392 0 27.8896C0 31.6674 2.83333 34.5008 6.61111 34.5008C6.86159 34.5008 7.10182 34.4013 7.27893 34.2241C7.45605 34.047 7.55556 33.8068 7.55556 33.5563C7.55556 33.3058 7.45605 33.0656 7.27893 32.8885C7.10182 32.7114 6.86159 32.6119 6.61111 32.6119ZM22.6667 2.38965C22.4162 2.38965 22.176 2.48915 21.9988 2.66627C21.8217 2.84339 21.7222 3.08361 21.7222 3.33409C21.7222 3.58458 21.8217 3.8248 21.9988 4.00192C22.176 4.17903 22.4162 4.27854 22.6667 4.27854C26.4444 4.27854 30.2222 7.66815 30.2222 11.8341C30.2222 12.0846 30.3217 12.3248 30.4988 12.5019C30.676 12.679 30.9162 12.7785 31.1667 12.7785C31.4171 12.7785 31.6574 12.679 31.8345 12.5019C32.0116 12.3248 32.1111 12.0846 32.1111 11.8341C32.1111 6.62643 28.3333 2.38965 22.6667 2.38965Z" fill="#5DADEC"/>
<path d="M27.3898 0.540039C26.8684 0.540039 26.4453 0.923484 26.4453 1.44482C26.4453 1.96615 26.8684 2.42893 27.3898 2.42893C30.2231 2.42893 32.0723 4.53032 32.0723 7.11148C32.0723 7.63282 32.5341 8.05593 33.0564 8.05593C33.5787 8.05593 33.9612 7.63282 33.9612 7.11148C33.9612 3.48765 31.1675 0.540039 27.3898 0.540039Z" fill="#5DADEC"/>
</g>
<defs>
<clipPath id="clip0_442_20380">
<rect width="34" height="34" fill="white" transform="translate(0 0.5)"/>
</clipPath>
</defs>
</svg>
